<svg width="42" height="39" viewBox="0 0 42 39" fill="none" xmlns="http://www.w3.org/2000/svg">
<path d="M30.6419 10.7339C30.5412 10.7339 30.4392 10.7117 30.3438 10.6645C30.0158 10.5035 29.8833 10.1133 30.0482 9.79285C31.9666 6.07254 34.6688 2.48188 35.4 1.76833C35.9046 1.27584 36.5742 1.00282 37.2866 1C37.2898 1 37.2938 1 37.2976 1C38.0074 1 38.673 1.26883 39.1731 1.75727C39.4329 2.01085 39.4329 2.4219 39.1731 2.67526C38.9133 2.92884 38.4925 2.92884 38.2327 2.67526C37.982 2.4305 37.6333 2.29645 37.2918 2.29832C36.9332 2.29991 36.5956 2.4378 36.3404 2.68661C35.8059 3.20808 33.1713 6.62378 31.2368 10.3767C31.1199 10.6033 30.8854 10.7339 30.6419 10.7339Z" fill="#E5C18A"/>
<path d="M32.6372 4.89502H23.5082C22.4501 4.89502 21.4352 5.30534 20.687 6.0358L2.43915 23.8491C1.9197 24.3561 1.9197 25.1781 2.43915 25.6851L14.6648 37.6197C15.1843 38.1268 16.0263 38.1268 16.5457 37.6197L34.7934 19.8064C35.5417 19.076 35.962 18.0853 35.962 17.0523V8.14076C35.9622 6.34821 34.4735 4.89502 32.6372 4.89502ZM32.0529 11.4653C31.2737 12.2259 30.0106 12.2259 29.2316 11.4653C28.4524 10.7047 28.4524 9.47167 29.2316 8.71115C30.0107 7.95063 31.2739 7.95056 32.0529 8.71115C32.8319 9.47175 32.832 10.7048 32.0529 11.4653Z" fill="#B78131"/>
<path d="M4.43518 25.7976L22.6828 7.98423C23.4311 7.25384 24.446 6.84345 25.5041 6.84345H34.6331C35.0286 6.84345 35.4025 6.9225 35.7544 7.04615C35.2929 5.79487 34.0779 4.89502 32.6371 4.89502H23.5082C22.4501 4.89502 21.4352 5.30534 20.687 6.0358L2.43915 23.8491C1.9197 24.3561 1.9197 25.1781 2.43915 25.6851L4.4351 27.6335C3.91572 27.1267 3.91572 26.3046 4.43518 25.7976Z" fill="#E6C18A"/>
<path d="M30.6431 10.7339C30.3995 10.7339 30.1651 10.6033 30.0482 10.3764C29.8833 10.0563 30.0157 9.66602 30.3438 9.50473C34.1876 7.61715 37.6866 5.04464 38.2211 4.52281C38.4763 4.27371 38.6173 3.94403 38.6191 3.59412C38.6205 3.24609 38.4834 2.91988 38.2328 2.67526C37.9822 2.43064 37.6334 2.29645 37.2918 2.29832C36.9333 2.29991 36.5957 2.4378 36.3405 2.68661C36.0807 2.94019 35.6599 2.94019 35.4001 2.68661C35.1403 2.43339 35.1403 2.0222 35.4001 1.76862C35.9045 1.27577 36.574 1.00282 37.2865 1C37.2898 1 37.2937 1 37.2975 1C38.0073 1 38.673 1.26883 39.173 1.75727C39.6763 2.24824 39.9517 2.90246 39.9491 3.59918C39.9458 4.29423 39.6666 4.94823 39.1613 5.4408C38.4307 6.15464 34.7518 8.79313 30.9411 10.6648C30.8457 10.7117 30.7431 10.7339 30.6431 10.7339Z" fill="#B78131"/>
<path d="M20.0036 29.3663C19.5445 29.3663 19.1724 29.003 19.1724 28.5548V15.7023C19.1724 15.2541 19.5445 14.8909 20.0036 14.8909C20.4628 14.8909 20.8349 15.2541 20.8349 15.7023V28.5549C20.8349 29.0031 20.4628 29.3663 20.0036 29.3663Z" fill="white"/>
<path d="M15.3011 24.8875C14.5465 24.8875 13.8367 24.6003 13.3029 24.0792C12.769 23.5584 12.4749 22.8655 12.4749 22.1285C12.4749 21.3915 12.769 20.6987 13.3029 20.1776C13.8367 19.6567 14.5465 19.3696 15.3011 19.3696C16.0563 19.3696 16.7662 19.6568 17.2993 20.1782C17.8332 20.699 18.1274 21.3919 18.1274 22.1285C18.1274 22.8655 17.8332 23.5584 17.2993 24.0795C16.7662 24.6003 16.0564 24.8875 15.3011 24.8875ZM15.3011 20.9925C14.9907 20.9925 14.6984 21.1107 14.4784 21.3254C14.2583 21.54 14.1374 21.8252 14.1374 22.1285C14.1374 22.4318 14.2582 22.7171 14.4784 22.9315C14.9187 23.3616 15.6837 23.3596 16.1239 22.9321C16.344 22.7173 16.4649 22.432 16.4649 22.1286C16.4649 21.8253 16.3441 21.54 16.1239 21.3256C16.1239 21.3254 16.1239 21.3254 16.1239 21.325C15.9038 21.1107 15.6122 20.9925 15.3011 20.9925Z" fill="white"/>
<path d="M24.7056 24.8875C23.9504 24.8875 23.2406 24.6003 22.7074 24.0789C22.1736 23.5585 21.8794 22.8656 21.8794 22.1286C21.8794 21.3917 22.1736 20.6988 22.7074 20.1777C23.2406 19.6569 23.9503 19.3698 24.7056 19.3698C25.4602 19.3698 26.1701 19.6569 26.7039 20.178C27.2377 20.6991 27.5319 21.3917 27.5319 22.1287C27.5319 22.8657 27.2377 23.5586 26.7039 24.0797C26.17 24.6003 25.4602 24.8875 24.7056 24.8875ZM24.7056 20.9925C24.3946 20.9925 24.103 21.1108 23.8829 21.3251C23.6628 21.54 23.5419 21.8253 23.5419 22.1286C23.5419 22.4319 23.6627 22.7172 23.8829 22.9316C24.3232 23.3611 25.0882 23.3621 25.5285 22.9319C25.7486 22.7172 25.8694 22.432 25.8694 22.1287C25.8694 21.8254 25.7486 21.5401 25.5285 21.3258C25.5285 21.3255 25.5285 21.3255 25.5285 21.3255C25.3083 21.1108 25.0161 20.9925 24.7056 20.9925Z" fill="white"/>
<ellipse cx="32.2683" cy="18.5" rx="0.512197" ry="0.500001" fill="white"/>
<ellipse cx="33.2927" cy="15.5" rx="0.512194" ry="0.5" fill="#EEEEEE"/>
<ellipse cx="11.7805" cy="26.5" rx="0.512196" ry="0.5" fill="white"/>
<ellipse cx="8.70726" cy="27.5" rx="0.512195" ry="0.5" fill="white"/>
<ellipse cx="30.2195" cy="16.5" rx="0.512197" ry="0.500001" fill="white"/>
<ellipse cx="9.73168" cy="24.5" rx="0.512195" ry="0.500001" fill="#EEEEEE"/>
</svg>
