<svg width="68" height="71" viewBox="0 0 68 71" fill="none" xmlns="http://www.w3.org/2000/svg">
<path d="M26.1112 46.8891C29.543 46.1756 31.5476 42.8798 31.5476 42.8798L32.0748 63.0285C32.0748 63.0285 30.1241 62.8548 28.5576 61.9752C27.4422 61.3489 26.3047 60.0399 25.3297 59.291C22.9852 57.4901 19.3157 56.3689 18.1604 55.8932C17.0051 55.4175 14.253 53.0391 14.253 53.0391C14.253 53.0391 10.6174 49.7772 9.83591 46.1756C9.05443 42.574 9.0884 39.9237 9.36022 38.9384C9.63204 37.953 11.3989 32.5166 12.9618 27.6578C14.5248 22.799 13.6754 21.6778 13.6754 21.6778C13.6754 21.6778 12.8939 17.6344 8.95249 15.324C5.01109 13.0135 0.695936 11.9602 0.695936 11.9602C0.695936 11.9602 -0.221474 10.3293 0.0503469 8.73232C0.322167 7.13537 1.57934 6.69366 1.57934 6.69366C1.57934 6.69366 9.63202 7.71299 14.4229 11.9602C19.2137 16.2074 19.1797 22.2554 19.2137 22.6291C19.2477 23.0029 19.6868 23.8184 22.5095 23.9203C25.3323 24.0222 25.9752 22.6291 25.9752 22.6291L22.7134 29.6965C22.7134 29.6965 22.1018 29.0509 21.2863 28.881C20.4709 28.7111 19.2817 28.949 19.2817 28.949C19.2817 28.949 16.4955 29.6965 16.3936 36.6959C16.2916 43.6953 19.3157 44.8505 19.3157 44.8505C19.3157 44.8505 22.6795 47.6027 26.1112 46.8891Z" fill="url(#paint0_linear)"/>
<path d="M64.1507 50.5247C64.5244 52.2236 64.6264 53.6166 64.4225 55.2476C64.2186 56.8785 63.2333 58.9511 62.112 60.582C60.9908 62.213 58.2726 63.0284 58.2726 63.0284H45.1572V0.373779H54.1273C54.1273 0.373779 54.7712 0.514036 55.1806 1.32515C55.4783 1.91486 55.5883 2.41243 55.5883 3.53369C55.5883 4.65495 53.6856 6.38781 53.6856 6.38781C53.6856 6.38781 52.2925 7.74691 51.8168 8.69829C51.3411 9.64966 52.0547 10.4651 52.0547 10.4651C52.0547 10.4651 52.7778 11.0838 54.2632 12.198C55.7373 13.3037 57.6983 14.5623 58.5784 15.3239C60.3452 16.8529 63.2673 19.8769 64.0488 21.27C64.8302 22.6631 66.6731 25.7923 67.4125 28.0655C67.9014 29.5686 67.9895 31.0711 67.8542 31.4633C67.5145 32.4486 66.8009 33.1961 66.4272 33.434C66.0534 33.6718 63.7769 34.6911 62.112 35.7444C60.4471 36.7977 59.2239 39.1422 59.2239 39.1422C59.2239 39.1422 58.2726 41.6226 59.2239 43.3894C60.1753 45.1562 61.6703 46.0736 62.3159 46.7532C62.9615 47.4327 63.7769 48.8258 64.1507 50.5247Z" fill="#A97456"/>
<path d="M26.1872 50.5247C25.8134 52.2236 25.7115 53.6166 25.9154 55.2476C26.1192 56.8785 27.1046 58.9511 28.2259 60.582C29.3471 62.213 32.0653 63.0284 32.0653 63.0284H45.1807V0.373779H36.2106C36.2106 0.373779 35.5667 0.514036 35.1573 1.32515C34.8596 1.91486 34.7495 2.41243 34.7495 3.53369C34.7495 4.65495 36.6523 6.38781 36.6523 6.38781C36.6523 6.38781 38.0454 7.74691 38.5211 8.69829C38.9967 9.64966 38.2832 10.4651 38.2832 10.4651C38.2832 10.4651 37.56 11.0838 36.0747 12.198C34.6006 13.3037 32.6396 14.5623 31.7595 15.3239C29.9927 16.8529 27.0706 19.8769 26.2891 21.27C25.5076 22.6631 23.6647 25.7923 22.9254 28.0655C22.4364 29.5686 22.3484 31.0711 22.4836 31.4633C22.8234 32.4486 23.5369 33.1961 23.9107 33.434C24.2845 33.6718 26.561 34.6911 28.2259 35.7444C29.8908 36.7977 31.1139 39.1422 31.1139 39.1422C31.1139 39.1422 32.0653 41.6226 31.1139 43.3894C30.1626 45.1562 28.6676 46.0736 28.022 46.7532C27.3764 47.4327 26.561 48.8258 26.1872 50.5247Z" fill="#A97456"/>
<rect x="34.3174" y="6.10352e-05" width="21.7456" height="6.25187" rx="3.12594" fill="url(#paint1_linear)"/>
<rect x="26.7734" y="60.684" width="36.8317" height="4.41708" rx="2.20854" fill="url(#paint2_linear)"/>
<rect x="39.5498" y="69.9938" width="0.0679552" height="0.0679552" fill="#C4C4C4"/>
<path d="M44.6593 26.572L38.4956 37.0817C37.2004 39.3036 37.1003 42.1288 38.4956 44.5079C40.5931 48.0843 45.2588 49.3211 48.9168 47.2704C52.5748 45.2197 53.8399 40.6581 51.7424 37.0817L45.5786 26.572C45.375 26.2249 44.8629 26.2249 44.6593 26.572Z" fill="url(#paint3_linear)"/>
<defs>
<linearGradient id="paint0_linear" x1="0.293386" y1="9.39797" x2="46.0849" y2="54.3336" gradientUnits="userSpaceOnUse">
<stop stop-color="#CF9D80"/>
<stop offset="1" stop-color="#CF9D80" stop-opacity="0.8"/>
</linearGradient>
<linearGradient id="paint1_linear" x1="34.5163" y1="0.300177" x2="36.1661" y2="10.1904" gradientUnits="userSpaceOnUse">
<stop stop-color="#CF9D80"/>
<stop offset="1" stop-color="#CF9D80" stop-opacity="0.8"/>
</linearGradient>
<linearGradient id="paint2_linear" x1="27.1103" y1="60.8961" x2="27.6077" y2="68.0435" gradientUnits="userSpaceOnUse">
<stop stop-color="#CF9D80"/>
<stop offset="1" stop-color="#CF9D80"/>
</linearGradient>
<linearGradient id="paint3_linear" x1="37.626" y1="27.3653" x2="55.1805" y2="48.4128" gradientUnits="userSpaceOnUse">
<stop stop-color="#CF9D80"/>
<stop offset="1" stop-color="#CF9D80" stop-opacity="0.8"/>
</linearGradient>
</defs>
</svg>
