<svg width="59" height="47" viewBox="0 0 59 47" fill="none" xmlns="http://www.w3.org/2000/svg">
<path d="M24.105 35.991L24.105 47H12.0105H0L0 30.5712C0 21.8204 1.90376 14.961 5.71129 9.99279C9.5748 5.02462 15.5101 1.69369 23.5171 0V8.72252C18.4217 10.3033 14.9781 12.6462 13.1864 15.7514C12.0105 17.8967 11.2266 20.9736 10.8346 24.982L16.8819 24.982H24.105V35.991ZM59 35.991V47H46.9055H34.895V30.5712C34.895 21.8204 36.7988 14.961 40.6063 9.99279C44.4698 5.02462 50.4051 1.69369 58.4121 0V8.72252C53.3167 10.3033 49.8731 12.6462 48.0814 15.7514C46.9055 17.8967 46.1216 20.9736 45.7297 24.982H51.7769H59L59 35.991Z" fill="white"/>
</svg>
