<svg width="59" height="47" viewBox="0 0 59 47" fill="none" xmlns="http://www.w3.org/2000/svg">
<path d="M34.895 11.009L34.895 -5.92202e-06L46.9895 -4.86469e-06L59 -3.8147e-06L59 16.4288C59 25.1796 57.0962 32.039 53.2887 37.0072C49.4252 41.9754 43.4899 45.3063 35.4829 47L35.4829 38.2775C40.5783 36.6967 44.0219 34.3538 45.8136 31.2486C46.9895 29.1033 47.7734 26.0264 48.1654 22.018L42.1181 22.018L34.895 22.018L34.895 11.009ZM3.14643e-06 11.009L4.10887e-06 -8.97264e-06L12.0945 -7.91531e-06L24.105 -6.86532e-06L24.105 16.4288C24.105 25.1796 22.2012 32.039 18.3937 37.0072C14.5302 41.9754 8.59493 45.3063 0.587925 47L0.587926 38.2775C5.68329 36.6967 9.12686 34.3537 10.9186 31.2486C12.0945 29.1033 12.8784 26.0264 13.2703 22.018L7.2231 22.018L2.18399e-06 22.018L3.14643e-06 11.009Z" fill="white"/>
</svg>
